<?xml version="1.0" encoding="UTF-8" standalone="no"?>
<!-- Uploaded to: SVG Repo, www.svgrepo.com, Generator: SVG Repo Mixer Tools -->

<svg
   fill="#000000"
   height="718.66827"
   width="718.94922"
   version="1.1"
   id="Capa_1"
   viewBox="0 0 177.40431 177.33499"
   xml:space="preserve"
   sodipodi:docname="film_white.svg"
   inkscape:version="1.4.2 (f4327f4, 2025-05-13)"
   xmlns:inkscape="http://www.inkscape.org/namespaces/inkscape"
   xmlns:sodipodi="http://sodipodi.sourceforge.net/DTD/sodipodi-0.dtd"
   xmlns="http://www.w3.org/2000/svg"
   xmlns:svg="http://www.w3.org/2000/svg"><defs
   id="defs1" /><sodipodi:namedview
   id="namedview1"
   pagecolor="#ffffff"
   bordercolor="#000000"
   borderopacity="0.25"
   inkscape:showpageshadow="2"
   inkscape:pageopacity="0.0"
   inkscape:pagecheckerboard="0"
   inkscape:deskcolor="#d1d1d1"
   showgrid="true"
   inkscape:zoom="0.70710678"
   inkscape:cx="457.49809"
   inkscape:cy="520.43059"
   inkscape:window-width="1838"
   inkscape:window-height="1258"
   inkscape:window-x="75"
   inkscape:window-y="-6"
   inkscape:window-maximized="1"
   inkscape:current-layer="Capa_1"><inkscape:grid
     id="grid1"
     units="px"
     originx="-9.9998425"
     originy="-10.035989"
     spacingx="0.246755"
     spacingy="0.246755"
     empcolor="#0099e5"
     empopacity="0.30196078"
     color="#0099e5"
     opacity="0.14901961"
     empspacing="5"
     enabled="true"
     visible="true" /></sodipodi:namedview>
<path
   id="rect8"
   style="fill:#ffffff;stroke-width:0.246755"
   d="m 0,0 v 6.375146 h 7.4869902 c 4.1049998,0 7.4460248,3.340025 7.4460248,7.446025 v 10.040808 c 0,4.106 -3.341025,7.446025 -7.4460248,7.446025 H 0 v 11.066865 h 0.5421862 c 10.6649998,0 19.3408688,7.144301 19.3408688,15.926301 v 59.10601 c 0,8.782 -8.675869,15.92582 -19.3408688,15.92582 H 0 v 12.02497 h 7.4869902 c 4.1049998,0 7.4460248,3.34103 7.4460248,7.44603 v 10.0408 c 0,4.106 -3.341025,7.44603 -7.4460248,7.44603 H 0 v 7.04216 0.002 h 177.40432 v -7.04167 h -9.62827 c -4.105,0 -7.44602,-3.34003 -7.44602,-7.44603 v -10.04225 c 0,-4.106 3.34102,-7.44602 7.44602,-7.44602 h 9.62827 v -12.02497 h -2.68298 c -10.665,0 -19.34135,-7.14382 -19.34135,-15.92582 V 58.302134 c 0,-8.782 8.67635,-15.926301 19.34135,-15.926301 h 2.68298 V 31.308968 h -9.62827 c -4.105,0 -7.44602,-3.341025 -7.44602,-7.446025 V 13.821171 c 0,-4.106 3.34102,-7.446025 7.44602,-7.446025 h 9.62827 V 0 Z m 31.512348,6.375146 h 10.040808 c 4.105,0 7.446025,3.340025 7.446025,7.446025 v 10.041772 c 0,4.105 -3.341025,7.446025 -7.446025,7.446025 H 31.513312 c -4.106,-0.001 -7.446989,-3.340989 -7.446989,-7.446989 V 13.821171 c 0,-4.106 3.341025,-7.446025 7.446025,-7.446025 z m 34.065685,0 h 10.042253 c 4.105,0 7.445061,3.340025 7.445061,7.446025 v 10.041772 c 0,4.105 -3.340061,7.446025 -7.445061,7.446025 H 65.578033 c -4.105,-0.001 -7.446025,-3.340989 -7.446025,-7.446989 V 13.821171 c 0,-4.106 3.341025,-7.446025 7.446025,-7.446025 z m 34.065204,0 h 10.041773 c 4.105,0 7.44602,3.340025 7.44602,7.446025 v 10.041772 c 0,4.105 -3.34102,7.446025 -7.44602,7.446025 H 99.643237 c -4.105,-0.001 -7.44506,-3.340989 -7.44506,-7.446989 V 13.821171 c 0,-4.106 3.34006,-7.446025 7.44506,-7.446025 z m 34.067133,0 h 10.04081 c 4.105,-0.001 7.44602,3.340025 7.44602,7.446025 v 10.041772 c 0,4.105 -3.34102,7.446025 -7.44602,7.446025 h -10.04081 c -4.105,0 -7.44603,-3.340025 -7.44603,-7.446025 V 13.821171 c 0,-4.106 3.34103,-7.446025 7.44603,-7.446025 z M 51.066236,42.374869 h 73.131054 c 11.892,0 21.56504,9.674038 21.56504,21.565038 v 47.828053 c 0.001,11.891 -9.67304,21.56504 -21.56504,21.56504 H 51.066236 c -11.892,0 -21.565037,-9.67404 -21.565037,-21.56504 V 63.939907 c 0,-11.891 9.674037,-21.565038 21.565037,-21.565038 z M 31.513312,145.35797 H 41.55412 c 4.105,0 7.446025,3.34003 7.446025,7.44603 v 10.04225 c 0,4.106 -3.341025,7.44554 -7.446025,7.44554 H 31.513312 c -4.105,0 -7.446025,-3.33954 -7.446025,-7.44554 V 152.804 c 0,-4.105 3.341025,-7.44603 7.446025,-7.44603 z m 34.064721,0 h 10.042253 c 4.106,0 7.445061,3.34003 7.445061,7.44603 v 10.04225 c 0,4.106 -3.340061,7.44554 -7.445061,7.44554 H 65.578033 c -4.105,0 -7.446025,-3.33954 -7.446025,-7.44554 V 152.804 c 0,-4.105 3.341025,-7.44603 7.446025,-7.44603 z m 34.066164,0 h 10.041773 c 4.105,0 7.44603,3.34003 7.44603,7.44603 v 10.04225 c 0,4.106 -3.34103,7.44554 -7.44603,7.44554 H 99.644197 c -4.105,0 -7.44506,-3.33954 -7.44506,-7.44554 V 152.804 c 0,-4.105 3.34006,-7.44603 7.44506,-7.44603 z m 34.066173,0 h 10.04081 c 4.105,0 7.44602,3.34003 7.44602,7.44603 v 10.04225 c 0,4.106 -3.34102,7.44554 -7.44602,7.44554 h -10.04081 c -4.105,0 -7.44603,-3.33954 -7.44603,-7.44554 V 152.804 c 0,-4.105 3.34103,-7.44603 7.44603,-7.44603 z"
   sodipodi:nodetypes="ccssssccssssccsssscccccssssccssssccsssscccssssscsssssssscsssssssscsssscsssssssssscsssssssssssssssssssssssssssssssssssssssss" />
</svg>
